<svg xmlns="http://www.w3.org/2000/svg" xmlns:xlink="http://www.w3.org/1999/xlink" 
     id="Capa_1" x="0px" y="0px" width="1092px" height="1050px" viewBox="296.5 0 1092 1050" xml:space="preserve">
 <g> 
    <g> 
      <path fill="inherit" d="M1138.957,281.246H541.043c-8.503,0-15.393,6.891-15.393,15.393s6.891,15.393,15.393,15.393h597.913 c8.503,0,15.393-6.891,15.393-15.393S1147.459,281.246,1138.957,281.246z"/> 
    </g> 
  </g> 
  <g> 
    <g> 
      <path fill="inherit" d="M1138.957,448.852H541.043c-8.503,0-15.393,6.891-15.393,15.393c0,8.5,6.891,15.393,15.393,15.393h597.913 c8.503,0,15.393-6.891,15.393-15.393S1147.459,448.852,1138.957,448.852z"/>
    </g> 
  </g> 
  <g> 
    <g> 
      <path fill="inherit" d="M942.935,557.626h-205.87c-8.503,0-15.393,6.891-15.393,15.393c0,8.5,6.891,15.393,15.393,15.393h205.87 c8.503,0,15.393-6.891,15.393-15.393C958.328,564.517,951.437,557.626,942.935,557.626z"/> 
    </g> 
  </g> 
  <g> 
    <g> 
      <path fill="inherit" d="M1138.957,364.707H692.965c-8.503,0-15.393,6.891-15.393,15.393c0,8.501,6.891,15.393,15.393,15.393 h445.992c8.503,0,15.393-6.891,15.393-15.393S1147.459,364.707,1138.957,364.707z"/> 
    </g> 
  </g> 
  <g> 
    <g> 
      <path fill="inherit" d="M621.348,364.705h-80.304c-8.503,0-15.393,6.891-15.393,15.393s6.891,15.393,15.393,15.393h80.304 c8.503,0,15.393-6.891,15.393-15.393C636.741,371.597,629.85,364.705,621.348,364.705z"/> 
    </g>
  </g> 
  <g> 
    <g> 
      <path fill="inherit" d="M1285.534,255.23c-3.581-3.517-8.32-5.453-13.375-5.453c-0.004,0-0.006,0-0.01,0 c-31.198,0-56.733-24.388-58.138-55.531c-0.461-10.127-8.783-18.057-18.945-18.057H481.271c-10.164,0-18.488,7.932-18.947,18.067 c-1.339,29.759-25.7,54.122-55.461,55.461c-10.131,0.455-18.065,8.779-18.065,18.947v397.895c0,10.168,7.934,18.49,18.065,18.945 c29.761,1.341,54.122,25.702,55.461,55.472c0.461,10.127,8.786,18.057,18.947,18.057h454.406c8.503,0,15.393-6.891,15.393-15.393 c0-8.5-6.891-15.393-15.393-15.393h-443.82c-6.364-37.076-35.2-65.912-72.276-72.278v-376.72 c37.076-6.364,65.912-35.206,72.276-72.276h692.629c6.624,38.247,37.417,67.77,75.932,72.823v261.411 c0,8.5,6.891,15.393,15.393,15.393c8.502,0,15.393-6.891,15.393-15.393V268.751 C1291.205,263.626,1289.191,258.823,1285.534,255.23z"/> 
    </g> 
  </g> 
  <g> 
    <g> 
      <path fill="inherit" d="M1322.272,99.35H357.728c-23.559,0-42.728,19.169-42.728,42.728V793.14 c0,23.561,19.169,42.728,42.728,42.728h646.095l-22.874,47.933c-2.939,6.154-2.223,13.371,1.862,18.83 c4.087,5.461,10.812,8.174,17.54,7.098l42.587-6.846l23.754,38.992c3.33,5.471,9.249,8.773,15.609,8.773 c0.31,0,0.621-0.008,0.933-0.025c6.71-0.34,12.676-4.319,15.574-10.385l41.274-86.488l41.27,86.481 c2.892,6.066,8.857,10.049,15.57,10.393c0.314,0.016,0.63,0.025,0.941,0.025c6.359,0,12.278-3.302,15.609-8.771l23.754-38.992 l42.587,6.848c6.749,1.079,13.461-1.643,17.544-7.106c4.085-5.463,4.795-12.678,1.856-18.822l-22.874-47.933h45.935 c23.559,0,42.728-19.167,42.728-42.728V142.078C1365,118.519,1345.831,99.35,1322.272,99.35z M1080.969,906.138l-16.113-26.445 c-3.88-6.37-11.144-9.721-18.514-8.537l-27.345,4.397l28.805-60.359c11.353,11.585,27.528,17.844,44.317,16.263 c5.74-0.55,11.495,0.997,16.197,4.337c1.55,1.103,3.16,2.082,4.791,3.004L1080.969,906.138z M1143.751,814.862 c-0.047,0.006-0.094,0.01-0.144,0.018c-2.334,0.345-4.707,0.345-7.04,0.002c-0.059-0.008-0.119-0.014-0.176-0.023 c-3.615-0.56-7.13-1.944-10.244-4.157c-9.311-6.62-20.428-10.139-31.769-10.139c-1.719,0-3.441,0.082-5.164,0.244 c-10.19,0.962-19.872-4.635-24.125-13.929c-1.889-4.126-4.298-7.945-7.096-11.437c-0.123-0.174-0.258-0.338-0.388-0.507 c-0.156-0.189-0.302-0.383-0.457-0.57c-0.178-0.209-0.365-0.408-0.556-0.607c-5.09-5.857-11.38-10.639-18.543-13.917 c-9.296-4.253-14.893-13.949-13.929-24.128c1.239-13.096-2.274-26.213-9.895-36.932c-5.925-8.332-5.925-19.528-0.002-27.86 c7.623-10.719,11.136-23.836,9.897-36.932c-0.964-10.178,4.635-19.874,13.929-24.128c11.962-5.474,21.564-15.075,27.037-27.037 c4.255-9.296,13.972-14.895,24.127-13.929c13.111,1.237,26.215-2.276,36.935-9.897c8.334-5.923,19.53-5.923,27.86,0 c10.722,7.621,23.828,11.125,36.935,9.897c10.186-0.968,19.876,4.635,24.13,13.929c5.474,11.962,15.075,21.564,27.036,27.035 c9.296,4.255,14.895,13.951,13.931,24.128c-1.239,13.098,2.274,26.215,9.895,36.932c5.925,8.332,5.925,19.528,0,27.86 c-7.621,10.721-11.134,23.838-9.895,36.933c0.964,10.178-4.635,19.874-13.933,24.129c-7.147,3.271-13.422,8.041-18.506,13.88 c-0.209,0.217-0.414,0.437-0.607,0.664c-0.133,0.16-0.258,0.326-0.392,0.488c-0.154,0.197-0.31,0.39-0.453,0.593 c-2.789,3.486-5.193,7.297-7.075,11.413c-4.255,9.294-13.952,14.895-24.13,13.929c-13.084-1.233-26.209,2.274-36.935,9.895 C1150.892,812.917,1147.373,814.304,1143.751,814.862z M1233.818,871.153c-7.373-1.179-14.632,2.17-18.514,8.542l-16.111,26.445 l-32.138-67.341c1.63-0.923,3.238-1.901,4.791-3.004c4.704-3.343,10.463-4.893,16.197-4.339 c16.796,1.583,32.966-4.676,44.319-16.261l28.803,60.357L1233.818,871.153z M1334.216,793.142c0,6.585-5.357,11.944-11.944,11.944 h-60.627l-7.937-16.632c0.4-0.211,0.798-0.433,1.212-0.621c21.197-9.702,33.963-31.814,31.767-55.02 c-0.544-5.742,0.997-11.495,4.339-16.197c13.506-19.001,13.506-44.533-0.002-63.533c-3.341-4.7-4.881-10.451-4.337-16.195 c2.196-23.207-10.57-45.318-31.769-55.02c-5.244-2.401-9.454-6.612-11.856-11.856c-9.7-21.199-31.822-33.961-55.022-31.767 c-5.746,0.548-11.495-0.997-16.195-4.339c-19.001-13.506-44.535-13.509-63.533,0c-4.702,3.343-10.467,4.887-16.195,4.337 c-23.235-2.186-45.322,10.57-55.021,31.767c-2.401,5.246-6.612,9.454-11.858,11.856c-21.197,9.702-33.963,31.812-31.767,55.02 c0.543,5.744-0.997,11.495-4.339,16.197c-13.506,19-13.506,44.533,0,63.531c3.343,4.7,4.883,10.453,4.339,16.197 c-2.196,23.209,10.57,45.32,31.767,55.02c0.414,0.189,0.81,0.41,1.21,0.621l-7.937,16.634H357.728 c-6.585,0-11.944-5.357-11.944-11.944V142.078c0-6.585,5.357-11.944,11.944-11.944h964.544c6.585,0,11.944,5.359,11.944,11.944 V793.142L1334.216,793.142z"/> 
    </g> 
  </g> 
  <g> 
    <g> 
      <path fill="inherit" d="M1138.957,589.214c-52.734,0-95.636,42.902-95.636,95.634c0,52.734,42.902,95.636,95.636,95.636 s95.634-42.904,95.634-95.636C1234.591,632.114,1191.691,589.214,1138.957,589.214z M1138.957,749.698 c-35.76,0-64.852-29.092-64.852-64.852c0-35.757,29.092-64.85,64.852-64.85c35.757,0,64.85,29.092,64.85,64.85 C1203.807,720.606,1174.714,749.698,1138.957,749.698z"/>
    </g> 
  </g> 
</svg>